<?xml version="1.0" encoding="utf-8"?>
<!-- Generator: Adobe Illustrator 23.1.1, SVG Export Plug-In . SVG Version: 6.00 Build 0)  -->
<svg version="1.1" id="Layer_1" xmlns="http://www.w3.org/2000/svg" xmlns:xlink="http://www.w3.org/1999/xlink" x="0px" y="0px"
	 viewBox="0 0 143.3 82.8" style="enable-background:new 0 0 143.3 82.8;" xml:space="preserve">
<style type="text/css">
	.st0{fill:#FFFFFF;}
</style>
<path class="st0" d="M21.8,2.6c4.9,0,13.5,0,16.8,8.2c1.5,3.9,1.7,12.4,1.7,16.9c0,0.5-0.1,10.7-0.8,14.6c-2,12.2-12,12.3-19.6,12.2
	h-4.5v-52H21.8z M0,56.2h21.7c6.3-0.1,13.5-0.1,20.3-7.3c5.2-5.5,7.7-12.9,7.7-20.5c0-14-7.8-23.3-17-26.1
	c-4.3-1.3-9.2-1.3-14.7-1.3H0.4v1.5h7v52.3H0V56.2z"/>
<path class="st0" d="M67.8,17.3l8.1,21.9h-16L67.8,17.3z M71.3,0.9L53.9,48.7c-2,4.8-2,5.2-5.4,5.5h-3.4v2h17.2v-2h-3.8
	c-1.8,0-3,0-3-1.4c0-0.8,0.3-1.7,0.7-2.9l3-8.6h17.5l4.6,12.9h-7.4v2h25v-2H93L73.9,0.9H71.3z"/>
<path class="st0" d="M142.6,15.3V0.9h-1.2l-2.8,3.9c-4.4-2.5-8.5-4.8-15-4.8C110.8,0,96,10.3,96,29.2c0,16.9,13.5,28,26.6,28
	c5.9,0,11-1.9,15.7-5.2l3.1,4.2h1.3l0.5-15.4h-1.5c-0.5,0.9-2.5,4.9-3,5.7c-0.6,1.2-5.4,8.8-15.8,8.8c-4.5,0-8.7-1.5-11.2-3.9
	c-4.6-4.2-4.6-9.4-4.6-21c0-10.3,0.5-17.1,1.9-20.4c2.2-5.2,6.4-6.8,8.9-7.5c2.3-0.6,4.2-0.7,5.4-0.7c4.1,0,7.9,1.2,10.9,3.3
	c3.5,2.6,5.6,6.3,6.7,10.1L142.6,15.3L142.6,15.3z"/>
<g>
	<path class="st0" d="M2.3,79.5H0V69h2.2c2.4,0,3.3,1.3,3.3,3.6v3.1C5.5,78,4.8,79.5,2.3,79.5z M4.1,72.2c0-1.2-0.5-2.1-1.9-2.1H1.4
		v8.2h0.9c1.4,0,1.8-1.1,1.8-2.4V72.2z"/>
	<path class="st0" d="M9.5,79.6c-1.6,0-2.5-0.9-2.5-2.5v-3.4c0-1.6,0.9-2.5,2.5-2.5c1.5,0,2.4,0.9,2.4,2.4v2.1H8.4v1.6
		c0,0.7,0.4,1.2,1.1,1.2c1.1,0,1.1-0.6,1.1-1.5h1.3v0.4C11.9,78.9,11,79.6,9.5,79.6z M10.6,73.5c0-0.7-0.4-1.2-1.1-1.2
		s-1.2,0.5-1.2,1.2v1.1h2.3V73.5z"/>
	<path class="st0" d="M15.6,79.6c-1.4,0-2.5-0.6-2.5-2.2V77h1.3v0.4c0,0.8,0.4,1.2,1.2,1.2c0.6,0,1.1-0.3,1.1-1
		c0-1.7-3.5-1.8-3.5-4.4v-0.2c0-1.4,1.1-1.9,2.4-1.9c1.3,0,2.3,0.6,2.3,2v0.4h-1.3v-0.3c0-0.7-0.4-1-1.1-1c-0.5,0-1,0.2-1,0.8
		c0,1.6,3.5,1.9,3.5,4.3v0.2C18.1,79.1,17,79.6,15.6,79.6z"/>
	<path class="st0" d="M19.2,70.2v-1.5h1.4v1.5H19.2z M19.2,79.5v-8.1h1.3v8.1C20.5,79.5,19.2,79.5,19.2,79.5z"/>
	<path class="st0" d="M24.6,82.8c-1.4,0-3-0.6-3-2.2c0-1,0.7-1.7,1.5-2.1c-0.5-0.2-0.9-0.5-0.9-1.1s0.3-0.9,0.7-1.2
		c-0.6-0.2-0.8-1.2-0.8-1.8v-1.1c0-1.5,1.1-2.2,2.5-2.2c0.5,0,1.1,0.1,1.6,0.4c0.5-0.5,0.9-0.6,1.5-0.6V72c-0.1,0-0.3-0.1-0.4-0.1
		c-0.2,0-0.4,0.1-0.6,0.2c0.4,0.6,0.3,1.7,0.3,2.3c0,1.6-1,2.2-2.4,2.2c-0.3,0-0.7,0-1-0.1c-0.1,0.1-0.2,0.3-0.2,0.5
		c0,0.4,0.6,0.6,0.9,0.6l1.5,0.5c1,0.4,2,0.8,2,2.1C27.8,82.1,26.2,82.8,24.6,82.8z M25.2,79.3l-1.4-0.4c-0.5,0.3-1,0.7-1,1.3
		c0,1.1,0.9,1.5,1.9,1.5c0.8,0,1.8-0.2,1.8-1.1C26.5,79.7,25.8,79.5,25.2,79.3z M25.8,73.4c0-0.8-0.5-1.2-1.2-1.2
		c-0.7,0-1.2,0.5-1.2,1.2v1.2c0,0.7,0.5,1.1,1.2,1.1c0.7,0,1.2-0.4,1.2-1.1V73.4z"/>
	<path class="st0" d="M32.2,79.5v-6c0-0.6-0.2-1-0.8-1c-0.5,0-1,0.4-1.4,0.7v6.3h-1.3v-8.1H30l0,0.8c0.5-0.5,1-0.9,1.7-0.9
		c1.3,0,1.8,0.7,1.8,1.9v6.3C33.6,79.5,32.2,79.5,32.2,79.5z"/>
	<path class="st0" d="M38.7,79.5l0-0.7c-0.5,0.4-1.1,0.8-1.7,0.8c-1.2,0-2-0.8-2-2v-0.4c0-2,2-2.5,3.7-2.7v-1.1c0-0.7-0.3-1.1-1-1.1
		c-1,0-1.1,0.6-1.1,1.5h-1.3v-0.3c0-1.6,0.9-2.3,2.4-2.3c1.4,0,2.3,0.6,2.3,2.1v6.1L38.7,79.5L38.7,79.5z M38.6,75.4
		c-1,0.1-2.3,0.4-2.3,1.7v0.3c0,0.7,0.3,1.1,1,1.1c0.5,0,1-0.3,1.3-0.7L38.6,75.4L38.6,75.4z"/>
	<path class="st0" d="M44,79.6c-1.4,0-1.9-0.7-1.9-2v-5.1H41v-1.1h1.1v-2.3l1.3-0.2v2.5H45v1.1h-1.5v5.2c0,0.6,0.2,0.9,0.8,0.9
		c0.3,0,0.5-0.1,0.8-0.1l0,1.1C44.7,79.5,44.4,79.6,44,79.6z"/>
	<path class="st0" d="M48.6,79.6c-1.6,0-2.5-0.9-2.5-2.5v-3.4c0-1.6,0.9-2.5,2.5-2.5c1.5,0,2.3,0.9,2.3,2.4v2.1h-3.6v1.6
		c0,0.7,0.4,1.2,1.1,1.2c1.1,0,1.1-0.6,1.1-1.5H51v0.4C51,78.9,50.1,79.6,48.6,79.6z M49.7,73.5c0-0.7-0.4-1.2-1.1-1.2
		s-1.2,0.5-1.2,1.2v1.1h2.3V73.5z"/>
	<path class="st0" d="M56.2,79.5l0-0.7c-0.5,0.4-1.1,0.8-1.8,0.8c-1.3,0-1.8-1-1.8-2.2v-3.8c0-1.2,0.4-2.4,1.8-2.4
		c0.7,0,1.3,0.3,1.8,0.8v-3.3h1.3v10.8C57.4,79.5,56.2,79.5,56.2,79.5z M56.1,73.1c-0.4-0.3-0.8-0.6-1.3-0.6c-0.8,0-1,0.5-1,1.2v3.6
		c0,0.7,0.2,1.1,1,1.1c0.5,0,1-0.3,1.4-0.6L56.1,73.1L56.1,73.1z"/>
	<path class="st0" d="M66.2,79.5l-0.6-2.8h-2.2L63,79.5h-1.4l2-10.4h2.1l2.1,10.4H66.2z M64.5,69.9c-0.3,1.8-0.6,3.7-0.9,5.6h1.9
		C65.1,73.6,64.7,71.8,64.5,69.9z"/>
	<path class="st0" d="M71.6,82.8c-1.4,0-3-0.6-3-2.2c0-1,0.7-1.7,1.5-2.1c-0.5-0.2-0.9-0.5-0.9-1.1s0.3-0.9,0.7-1.2
		c-0.6-0.2-0.8-1.2-0.8-1.8v-1.1c0-1.5,1.1-2.2,2.5-2.2c0.6,0,1.1,0.1,1.6,0.4c0.5-0.5,0.9-0.6,1.6-0.6V72c-0.1,0-0.3-0.1-0.4-0.1
		c-0.2,0-0.4,0.1-0.6,0.2c0.4,0.6,0.3,1.7,0.3,2.3c0,1.6-1,2.2-2.4,2.2c-0.3,0-0.7,0-1-0.1c-0.1,0.1-0.2,0.3-0.2,0.5
		c0,0.4,0.6,0.6,0.9,0.6l1.5,0.5c1.1,0.4,2,0.8,2,2.1C74.8,82.1,73.2,82.8,71.6,82.8z M72.2,79.3l-1.4-0.4c-0.6,0.3-1,0.7-1,1.3
		c0,1.1,0.9,1.5,1.9,1.5c0.8,0,1.8-0.2,1.8-1.1C73.5,79.7,72.8,79.5,72.2,79.3z M72.8,73.4c0-0.8-0.4-1.2-1.2-1.2
		c-0.7,0-1.2,0.5-1.2,1.2v1.2c0,0.7,0.5,1.1,1.2,1.1c0.7,0,1.2-0.4,1.2-1.1V73.4z"/>
	<path class="st0" d="M78,79.6c-1.6,0-2.5-0.9-2.5-2.5v-3.4c0-1.6,0.9-2.5,2.5-2.5c1.5,0,2.3,0.9,2.3,2.4v2.1h-3.6v1.6
		c0,0.7,0.4,1.2,1.1,1.2c1.1,0,1.1-0.6,1.1-1.5h1.3v0.4C80.4,78.9,79.5,79.6,78,79.6z M79.2,73.5c0-0.7-0.4-1.2-1.1-1.2
		c-0.8,0-1.2,0.5-1.2,1.2v1.1h2.3V73.5z"/>
	<path class="st0" d="M85.4,79.5v-6c0-0.6-0.2-1-0.8-1c-0.5,0-1,0.4-1.3,0.7v6.3h-1.3v-8.1h1.2l0.1,0.8c0.4-0.5,1.1-0.9,1.7-0.9
		c1.3,0,1.8,0.7,1.8,1.9v6.3C86.7,79.5,85.4,79.5,85.4,79.5z"/>
	<path class="st0" d="M90.9,79.6c-1.4,0-1.9-0.7-1.9-2v-5.1h-1.1v-1.1H89v-2.3l1.3-0.2v2.5h1.5v1.1h-1.5v5.2c0,0.6,0.2,0.9,0.8,0.9
		c0.3,0,0.5-0.1,0.8-0.1l0.1,1.1C91.6,79.5,91.3,79.6,90.9,79.6z"/>
	<path class="st0" d="M98.8,79.6c-1.8,0-2.7-1-2.7-2.8v-5.2c0-1.7,0.9-2.8,2.7-2.8c1.6,0,2.7,0.8,2.7,2.4v1.2h-1.3
		c0-0.2,0-0.4,0-0.7c0-1-0.1-1.8-1.3-1.8c-1,0-1.3,0.6-1.3,1.5v5.2c0,0.9,0.3,1.7,1.3,1.7c1.6,0,1.4-1.5,1.3-2.6h1.4v1.1
		C101.6,78.8,100.6,79.6,98.8,79.6z"/>
	<path class="st0" d="M105.6,79.6c-1.6,0-2.5-0.9-2.5-2.4v-3.6c0-1.5,1-2.4,2.5-2.4c1.6,0,2.5,0.8,2.5,2.4v3.6
		C108.1,78.8,107.1,79.6,105.6,79.6z M106.8,73.6c0-0.7-0.4-1.2-1.2-1.2c-0.8,0-1.2,0.5-1.2,1.2v3.7c0,0.8,0.4,1.2,1.2,1.2
		s1.2-0.4,1.2-1.2V73.6z"/>
	<path class="st0" d="M116.1,79.5v-5.9c0-0.5-0.2-1.1-0.8-1.1c-0.5,0-0.9,0.4-1.2,0.8v6.2h-1.3v-6c0-0.6-0.2-1-0.8-1
		c-0.5,0-0.8,0.3-1.1,0.6v6.3h-1.3v-8.1h1.2l0.1,0.7c0.4-0.5,1-0.8,1.7-0.8c0.7,0,1.2,0.3,1.5,1c0.4-0.7,1-1,1.8-1
		c1.2,0,1.6,0.9,1.6,2v6.2C117.4,79.5,116.1,79.5,116.1,79.5z"/>
	<path class="st0" d="M122.2,79.6c-0.7,0-1.3-0.3-1.8-0.8v3.8H119V71.4h1.2l0,0.6c0.5-0.5,1.2-0.8,1.8-0.8c1.2,0,1.8,1,1.8,2.2v3.8
		C124,78.4,123.5,79.6,122.2,79.6z M122.7,73.6c0-0.6-0.3-1.2-1-1.2c-0.5,0-1,0.3-1.4,0.6v4.7c0.3,0.3,0.9,0.6,1.4,0.6
		c0.9,0,1-0.6,1-1.3V73.6z"/>
	<path class="st0" d="M129.1,79.5l0-0.7c-0.5,0.4-1.1,0.8-1.7,0.8c-1.2,0-2-0.8-2-2v-0.4c0-2,2-2.5,3.7-2.7v-1.1
		c0-0.7-0.3-1.1-1-1.1c-1,0-1.1,0.6-1.1,1.5h-1.3v-0.3c0-1.6,0.9-2.3,2.4-2.3c1.4,0,2.3,0.6,2.3,2.1v6.1L129.1,79.5L129.1,79.5z
		 M129,75.4c-1,0.1-2.3,0.4-2.3,1.7v0.3c0,0.7,0.3,1.1,1,1.1c0.5,0,1-0.3,1.3-0.7L129,75.4L129,75.4z"/>
	<path class="st0" d="M135.3,79.5v-6c0-0.6-0.2-1-0.8-1c-0.5,0-1,0.4-1.4,0.7v6.3h-1.3v-8.1h1.2l0.1,0.8c0.4-0.5,1.1-0.9,1.7-0.9
		c1.3,0,1.8,0.7,1.8,1.9v6.3C136.6,79.5,135.3,79.5,135.3,79.5z"/>
	<path class="st0" d="M140.9,80.4c-0.4,1.4-0.9,2.3-2.4,2.3c-0.2,0-0.5,0-0.7-0.1v-1.1c0.2,0,0.4,0.1,0.6,0.1c0.9,0,1.1-0.5,1.2-1.2
		l0.2-1.1l-2.1-7.9h1.4c0.5,2.2,1,4.3,1.4,6.5c0.3-2.2,0.9-4.3,1.4-6.5h1.3L140.9,80.4z"/>
</g>
</svg>
